<?xml version="1.0" encoding="UTF-8"?><svg id="Layer_2" xmlns="http://www.w3.org/2000/svg" viewBox="0 0 174.32 174.32"><defs><style>.cls-1{fill:#eeede5;}.cls-2{fill:#f26e7b;}.cls-3{fill:#b5b5b5;}.cls-4{fill:#ccedf0;}.cls-5{fill:#242536;}.cls-6{isolation:isolate;}</style></defs><g id="Layer_1-2"><g><rect class="cls-1" width="174.32" height="174.32"/><g><path class="cls-5" d="M35.94,69.08c1.13-3.78,2.55-7.32,4.28-10.62h-6.31v-1.8h8.61v1.64c-.95,1.74-1.77,3.48-2.47,5.24-.7,1.76-1.31,3.6-1.82,5.55h-2.28Z"/><path class="cls-5" d="M46.49,62.7c-.53-.24-.95-.6-1.26-1.09-.31-.49-.47-1.09-.47-1.81,0-.48,.08-.93,.25-1.36,.17-.43,.43-.79,.78-1.11,.35-.31,.8-.56,1.34-.75,.54-.19,1.18-.28,1.92-.28s1.42,.09,1.97,.28c.54,.19,.99,.44,1.34,.75,.35,.32,.6,.69,.76,1.11,.16,.43,.23,.88,.23,1.36,0,.72-.16,1.31-.47,1.78-.31,.47-.73,.82-1.26,1.06,.26,.12,.52,.27,.77,.45,.25,.18,.48,.39,.67,.64,.2,.25,.35,.52,.47,.84,.11,.31,.17,.67,.17,1.06,0,1.14-.39,2.05-1.16,2.73-.77,.68-1.94,1.02-3.5,1.02s-2.73-.34-3.49-1.02c-.75-.68-1.13-1.59-1.13-2.73,0-.38,.06-.73,.18-1.04,.12-.31,.28-.59,.47-.84,.19-.25,.41-.46,.66-.64,.25-.18,.49-.32,.75-.43Zm-.02,2.95c0,.66,.21,1.18,.62,1.55,.41,.38,1.07,.57,1.99,.57s1.56-.19,1.99-.58c.43-.39,.64-.91,.64-1.57,0-.3-.04-.57-.13-.82-.09-.25-.24-.46-.44-.64-.2-.18-.47-.32-.81-.42-.34-.1-.75-.15-1.24-.15-.52,0-.94,.06-1.28,.17s-.6,.26-.8,.45c-.2,.19-.34,.4-.41,.66-.08,.25-.12,.52-.12,.79Zm.23-5.72c0,.68,.19,1.18,.57,1.5,.38,.32,.98,.48,1.81,.48s1.42-.17,1.78-.5c.36-.34,.54-.84,.54-1.51,0-.26-.04-.52-.12-.76-.08-.24-.21-.45-.4-.63-.19-.18-.43-.32-.72-.43-.29-.11-.66-.16-1.09-.16s-.8,.06-1.11,.17-.55,.26-.74,.45c-.19,.19-.32,.4-.4,.64-.08,.24-.13,.49-.13,.76Z"/><path class="cls-5" d="M58.23,64.15c-.99,0-1.78-.32-2.36-.96-.58-.64-.87-1.61-.87-2.92,0-.66,.08-1.23,.25-1.73,.17-.49,.4-.9,.68-1.22,.29-.32,.63-.57,1.02-.73,.4-.16,.82-.24,1.28-.24,.96,0,1.74,.33,2.34,.98,.6,.65,.9,1.63,.9,2.94,0,.72-.09,1.32-.26,1.82-.17,.49-.41,.89-.7,1.2-.29,.31-.64,.53-1.03,.66-.4,.14-.81,.21-1.24,.21Zm0-1.47c.49,0,.86-.18,1.11-.54,.25-.36,.38-.98,.38-1.87s-.13-1.48-.38-1.86c-.25-.38-.62-.57-1.11-.57s-.85,.19-1.11,.57c-.26,.38-.39,1-.39,1.86s.13,1.51,.38,1.87c.25,.36,.62,.54,1.11,.54Zm.5,6.4l6.27-12.42h2l-6.27,12.42h-2Zm8.81,.31c-1,0-1.78-.32-2.36-.96-.58-.64-.87-1.61-.87-2.92,0-.66,.08-1.23,.25-1.73,.17-.49,.4-.9,.68-1.22,.29-.32,.63-.57,1.02-.73,.4-.16,.82-.24,1.28-.24,.96,0,1.74,.33,2.34,.98,.6,.65,.9,1.63,.9,2.94,0,.72-.09,1.32-.26,1.82-.17,.49-.41,.89-.7,1.2-.29,.31-.64,.53-1.03,.67-.4,.14-.81,.21-1.24,.21Zm0-1.47c.49,0,.86-.18,1.11-.54,.25-.36,.38-.98,.38-1.87s-.13-1.48-.38-1.86c-.25-.38-.62-.57-1.11-.57s-.85,.19-1.11,.57c-.26,.38-.39,1-.39,1.86s.13,1.51,.38,1.87c.25,.36,.62,.54,1.11,.54Z"/></g><g><path class="cls-2" d="M85.45,51.02l-9.3,3.02c.85,2.53,1.31,5.24,1.31,8.05,0,14.04-11.38,25.41-25.41,25.41s-25.41-11.38-25.41-25.41,11.38-25.41,25.41-25.41h0v-9.93c-3.88,0-7.16,.52-10.85,1.72-18.45,5.99-28.54,25.8-22.55,44.25,5.99,18.45,25.8,28.54,44.25,22.55,18.45-5.99,28.54-25.8,22.55-44.25Z"/><path class="cls-4" d="M76.15,54.04l9.3-3.02c-4.79-14.76-17.88-24.27-33.4-24.27v9.93c11.22,0,20.73,7.27,24.1,17.36Z"/></g><path class="cls-2" d="M51.65,26.75c2.74,0,4.97,2.22,4.97,4.97s-2.22,4.97-4.97,4.97"/><path class="cls-2" d="M76.18,54.11c-.84-2.56,.55-5.33,3.12-6.17,2.56-.84,5.33,.55,6.17,3.12"/><g><path class="cls-5" d="M21,113.14c-.93,0-1.66-.28-2.17-.83-.51-.55-.77-1.33-.77-2.34,0-.47,.07-.91,.2-1.3,.13-.39,.33-.72,.58-1,.25-.28,.56-.49,.93-.64,.37-.15,.78-.23,1.25-.23s.89,.08,1.26,.24c.37,.16,.67,.37,.92,.65,.25,.28,.44,.61,.56,.99,.13,.39,.19,.81,.19,1.27,0,.52-.07,.98-.22,1.37-.15,.39-.35,.73-.61,1-.26,.27-.58,.48-.94,.61-.36,.14-.76,.21-1.19,.21Zm.01-1.06c.55,0,.95-.19,1.21-.57,.26-.38,.38-.9,.38-1.55s-.13-1.16-.38-1.54c-.26-.38-.66-.56-1.21-.56s-.95,.19-1.21,.57c-.26,.38-.38,.89-.38,1.53s.12,1.17,.37,1.55c.25,.38,.66,.57,1.22,.57Z"/><path class="cls-5" d="M25.62,108.03h-.93v-1.03h.93v-.34c0-.63,.17-1.11,.52-1.46,.34-.34,.82-.52,1.43-.52,.41,0,.78,.05,1.12,.16l-.19,.98c-.23-.07-.46-.1-.69-.1-.28,0-.5,.08-.65,.23-.15,.15-.23,.38-.23,.68v.38h1.45v1.03h-1.45v4.93h-1.31v-4.93Z"/><path class="cls-5" d="M34.4,104.77h1.38l3.12,8.19h-1.48l-.77-2.09h-3.18l-.76,2.09h-1.43l3.12-8.19Zm1.87,4.95l-1.22-3.37-1.2,3.37h2.42Z"/><path class="cls-5" d="M41.03,106.99v.86c.41-.57,.9-.91,1.47-1,.15-.02,.3-.03,.46-.03,.41,.02,.73,.12,.99,.3,.25,.19,.44,.44,.55,.76,.53-.72,1.18-1.08,1.95-1.08,.63,0,1.1,.18,1.4,.53,.3,.35,.45,.91,.45,1.69v3.94h-1.31v-3.58c0-.29-.02-.53-.06-.72-.04-.19-.09-.34-.17-.45-.07-.11-.17-.19-.28-.23-.11-.04-.25-.06-.39-.06-.23,0-.43,.04-.61,.13-.18,.08-.32,.19-.44,.33-.12,.14-.21,.29-.27,.46-.06,.17-.09,.35-.09,.53v3.59h-1.31v-3.71c0-.51-.08-.86-.24-1.06-.16-.19-.37-.29-.65-.29-.11,0-.25,.03-.41,.07-.16,.05-.32,.13-.47,.25-.15,.12-.28,.27-.38,.46s-.16,.42-.16,.7v3.57h-1.3v-5.97h1.26Z"/><path class="cls-5" d="M55.03,111.19c-.11,.62-.37,1.1-.79,1.44-.42,.34-1.03,.51-1.81,.51-.95,0-1.67-.27-2.16-.82-.49-.55-.74-1.32-.74-2.31,0-.51,.07-.97,.21-1.37,.14-.4,.34-.73,.6-1,.26-.27,.56-.48,.92-.62,.36-.14,.75-.21,1.18-.21,.46,0,.86,.07,1.19,.21,.34,.14,.62,.34,.84,.6,.22,.26,.39,.56,.49,.92,.11,.36,.16,.75,.16,1.19v.57h-4.28c.02,.54,.15,.98,.41,1.32,.26,.34,.65,.5,1.18,.5,.41,0,.72-.08,.93-.24,.21-.16,.34-.39,.41-.69h1.26Zm-1.19-1.8c0-.49-.12-.88-.34-1.16-.23-.28-.6-.42-1.1-.42s-.85,.14-1.1,.43c-.25,.29-.4,.67-.44,1.15h2.98Z"/><path class="cls-5" d="M57.65,106.99v.88c.21-.31,.45-.55,.75-.72,.29-.17,.6-.25,.93-.25,.13,0,.24,0,.33,.01,.09,0,.17,.02,.26,.03l-.15,1.19c-.08-.02-.18-.04-.28-.05-.1,0-.2-.01-.31-.01-.25,0-.46,.04-.64,.12-.18,.08-.34,.19-.46,.32-.13,.13-.22,.28-.29,.44-.06,.16-.1,.33-.1,.5v3.5h-1.3v-5.97h1.26Z"/><path class="cls-5" d="M62.24,104.77v1.3h-1.35v-1.3h1.35Zm-.02,2.23v5.97h-1.31v-5.97h1.31Z"/><path class="cls-5" d="M68.97,110.87c-.08,.71-.33,1.27-.76,1.67-.43,.4-1.05,.6-1.85,.6-.48,0-.9-.07-1.26-.22-.36-.15-.65-.36-.89-.64-.24-.28-.41-.61-.53-.99-.12-.39-.17-.82-.17-1.29s.06-.91,.19-1.3c.13-.39,.32-.73,.57-1.01,.25-.28,.55-.5,.91-.65,.36-.15,.77-.23,1.23-.23,.42,0,.78,.06,1.07,.17,.29,.11,.53,.26,.72,.45,.19,.19,.34,.4,.45,.65,.11,.25,.18,.5,.23,.77l-1.3,.19c-.06-.34-.18-.62-.35-.84-.17-.22-.46-.33-.87-.33-.29,0-.53,.06-.72,.18-.19,.12-.34,.28-.46,.48-.11,.19-.2,.42-.25,.67-.05,.25-.07,.51-.07,.77,0,.3,.03,.58,.08,.84,.05,.26,.14,.48,.25,.67,.11,.19,.27,.34,.46,.45,.19,.11,.42,.17,.7,.17,.4,0,.7-.1,.91-.32,.21-.21,.34-.51,.39-.9h1.32Z"/><path class="cls-5" d="M73.8,112.18c-.22,.27-.49,.49-.81,.67-.32,.18-.71,.26-1.17,.26-.28,0-.55-.04-.79-.11-.24-.07-.46-.18-.64-.33s-.32-.33-.42-.56c-.1-.23-.16-.49-.16-.8,0-.41,.09-.75,.28-1,.18-.26,.42-.46,.72-.6,.29-.15,.63-.25,.99-.3,.37-.06,.73-.09,1.1-.11l.88-.05v-.25c0-.45-.11-.76-.33-.94-.22-.17-.5-.26-.85-.26-.41,0-.71,.07-.9,.21-.19,.14-.32,.34-.38,.6l-1.19-.13c.11-.58,.37-1.01,.79-1.27,.42-.27,1-.4,1.73-.4,.47,0,.87,.06,1.18,.18,.31,.12,.56,.29,.74,.5,.18,.21,.31,.47,.38,.76,.07,.29,.11,.62,.11,.97v3.73h-1.25v-.78Zm-.86-2.01c-.39,.02-.71,.06-.95,.13-.24,.06-.43,.14-.56,.24-.13,.1-.22,.21-.26,.33-.04,.13-.06,.26-.06,.41,0,.26,.08,.46,.25,.61,.16,.15,.41,.22,.73,.22,.57,0,1-.15,1.27-.44,.28-.29,.41-.68,.41-1.18v-.34l-.84,.03Z"/><path class="cls-5" d="M77.75,106.99v.87c.27-.37,.57-.63,.9-.8,.33-.17,.69-.25,1.07-.25,1.33,0,2,.73,2,2.2v3.95h-1.31v-3.74c0-.48-.09-.82-.26-1.02-.18-.2-.44-.29-.78-.29-.23,0-.44,.04-.64,.12-.2,.08-.36,.19-.5,.33-.14,.14-.25,.3-.33,.48-.08,.18-.12,.37-.12,.57v3.56h-1.3v-5.97h1.26Z"/><path class="cls-5" d="M84.05,111.14c.02,.2,.08,.36,.16,.49,.08,.13,.19,.23,.32,.3,.13,.08,.27,.13,.44,.16,.17,.03,.35,.04,.54,.04,.44,0,.75-.06,.94-.19,.19-.13,.29-.32,.29-.57,0-.2-.06-.37-.18-.5-.12-.14-.36-.24-.73-.3-.47-.08-.89-.16-1.25-.24-.36-.08-.66-.18-.91-.32s-.43-.31-.55-.52c-.12-.21-.18-.49-.18-.85,0-.28,.06-.53,.18-.75,.12-.23,.29-.42,.51-.57,.22-.16,.48-.28,.78-.36,.3-.08,.63-.13,.99-.13,.46,0,.84,.05,1.15,.14,.31,.09,.55,.22,.75,.38,.19,.16,.34,.34,.44,.55,.1,.21,.18,.42,.23,.65l-1.17,.16c-.09-.3-.23-.52-.42-.67-.19-.14-.5-.22-.94-.22-.25,0-.46,.02-.62,.07-.16,.05-.29,.1-.38,.17s-.16,.15-.19,.23c-.03,.08-.05,.17-.05,.25,0,.13,.01,.24,.05,.32,.03,.08,.09,.15,.17,.21,.08,.05,.19,.1,.33,.14,.14,.04,.31,.08,.52,.11l.75,.13c.4,.07,.73,.16,.99,.26,.26,.11,.47,.24,.63,.4,.16,.16,.27,.34,.33,.55,.06,.21,.09,.44,.09,.69,0,.54-.21,.98-.62,1.31-.41,.33-1.04,.5-1.88,.5-.34,0-.68-.03-.99-.1-.32-.06-.6-.17-.85-.33s-.46-.36-.61-.61c-.16-.26-.25-.58-.27-.97h1.25Z"/><path class="cls-5" d="M92.55,106.99l1.01,4.36,1.26-4.31h1.19l1.22,4.31,1.01-4.36h1.37l-1.74,5.97h-1.3l-1.2-4.34-1.22,4.34h-1.28l-1.73-5.97h1.42Z"/><path class="cls-5" d="M101.78,104.77v1.3h-1.35v-1.3h1.35Zm-.02,2.23v5.97h-1.31v-5.97h1.31Z"/><path class="cls-5" d="M102.67,108.03v-1.03h.94v-1.61h1.3v1.61h1.48v1.03h-1.48v3.12c0,.31,.06,.53,.19,.67,.13,.14,.31,.21,.56,.21,.13,0,.25,0,.37-.02,.12-.02,.23-.04,.35-.08l.19,.98c-.37,.12-.76,.18-1.19,.18-.66,0-1.12-.17-1.38-.51-.26-.34-.39-.85-.39-1.53v-3.01h-.94Z"/><path class="cls-5" d="M108.72,104.77v3.05c.25-.34,.54-.6,.88-.76,.33-.16,.69-.25,1.06-.25,1.33,0,2,.73,2,2.2v3.95h-1.31v-3.74c0-.48-.09-.82-.26-1.02-.18-.2-.44-.29-.78-.29-.24,0-.45,.04-.65,.13-.19,.08-.36,.19-.5,.33-.14,.14-.25,.3-.32,.48-.08,.18-.11,.37-.11,.56v3.56h-1.3v-8.19h1.3Z"/><path class="cls-5" d="M21.88,123.65c-.22,.27-.49,.49-.81,.67-.32,.18-.71,.26-1.17,.26-.28,0-.55-.04-.79-.11-.24-.07-.46-.18-.64-.33-.18-.15-.32-.33-.42-.56-.1-.23-.16-.49-.16-.8,0-.41,.09-.75,.28-1,.18-.26,.42-.46,.72-.6,.29-.15,.63-.25,.99-.3,.37-.06,.73-.09,1.1-.11l.88-.05v-.25c0-.45-.11-.76-.33-.94-.22-.17-.5-.26-.85-.26-.41,0-.71,.07-.9,.21-.19,.14-.32,.34-.38,.6l-1.19-.13c.11-.58,.37-1.01,.79-1.27,.42-.27,1-.4,1.73-.4,.47,0,.87,.06,1.18,.18,.31,.12,.56,.29,.74,.5,.18,.21,.31,.47,.38,.76,.07,.29,.11,.62,.11,.97v3.73h-1.25v-.78Zm-.86-2.01c-.39,.02-.71,.06-.95,.13s-.43,.14-.56,.24c-.13,.1-.22,.21-.26,.33-.04,.13-.06,.26-.06,.41,0,.26,.08,.46,.25,.61,.16,.15,.41,.22,.73,.22,.57,0,1-.15,1.27-.44,.28-.29,.41-.68,.41-1.18v-.34l-.84,.03Z"/><path class="cls-5" d="M25.82,118.47v3.75c0,.5,.08,.84,.25,1.02,.16,.18,.41,.28,.75,.28,.18,0,.37-.03,.56-.1,.19-.07,.35-.17,.5-.3,.15-.13,.26-.29,.36-.47,.09-.18,.14-.39,.14-.62v-3.56h1.31v5.97h-1.27v-.87c-.28,.37-.57,.63-.89,.8-.32,.17-.67,.25-1.03,.25-.7,0-1.2-.18-1.5-.54-.3-.36-.45-.91-.45-1.65v-3.96h1.3Z"/><path class="cls-5" d="M30.57,119.5v-1.03h.94v-1.61h1.3v1.61h1.48v1.03h-1.48v3.12c0,.31,.06,.53,.19,.67,.13,.14,.31,.21,.56,.21,.13,0,.25,0,.37-.02,.12-.02,.23-.04,.35-.08l.19,.98c-.37,.12-.76,.18-1.19,.18-.66,0-1.12-.17-1.38-.51-.26-.34-.39-.85-.39-1.53v-3.01h-.94Z"/><path class="cls-5" d="M37.93,124.62c-.93,0-1.66-.28-2.17-.83-.51-.55-.77-1.33-.77-2.34,0-.47,.07-.91,.2-1.3,.13-.39,.33-.72,.58-1,.25-.28,.56-.49,.93-.64,.37-.15,.78-.23,1.25-.23s.89,.08,1.26,.24c.37,.16,.67,.37,.92,.65,.25,.28,.44,.61,.56,.99,.13,.39,.19,.81,.19,1.27,0,.52-.07,.98-.22,1.37-.15,.39-.35,.73-.61,1-.26,.27-.58,.48-.94,.61-.36,.14-.76,.21-1.19,.21Zm.01-1.06c.55,0,.95-.19,1.21-.57,.26-.38,.38-.9,.38-1.55s-.13-1.16-.38-1.54c-.26-.38-.66-.56-1.21-.56s-.95,.19-1.21,.57c-.26,.38-.38,.89-.38,1.53s.12,1.17,.37,1.55c.25,.38,.66,.57,1.22,.57Z"/><path class="cls-5" d="M43.53,116.24v1.3h-1.35v-1.3h1.35Zm-.02,2.23v5.97h-1.31v-5.97h1.31Z"/><path class="cls-5" d="M46.28,118.47v.86c.41-.57,.9-.91,1.47-1,.15-.02,.3-.03,.46-.03,.41,.02,.73,.12,.99,.3,.25,.19,.44,.44,.55,.76,.53-.72,1.18-1.08,1.95-1.08,.63,0,1.1,.18,1.4,.53,.3,.35,.45,.91,.45,1.69v3.94h-1.31v-3.58c0-.29-.02-.53-.06-.72-.04-.19-.09-.34-.17-.45-.07-.11-.17-.19-.28-.23-.11-.04-.25-.06-.39-.06-.23,0-.43,.04-.61,.13-.18,.08-.32,.19-.44,.33-.12,.14-.21,.29-.27,.46-.06,.17-.09,.35-.09,.53v3.59h-1.31v-3.71c0-.51-.08-.86-.24-1.06-.16-.19-.37-.29-.65-.29-.11,0-.25,.03-.41,.07-.16,.05-.32,.13-.47,.25-.15,.12-.28,.27-.38,.46-.11,.19-.16,.42-.16,.7v3.57h-1.3v-5.97h1.26Z"/><path class="cls-5" d="M56.24,118.47v.86c.41-.57,.9-.91,1.47-1,.15-.02,.3-.03,.46-.03,.41,.02,.73,.12,.99,.3,.25,.19,.44,.44,.55,.76,.53-.72,1.18-1.08,1.95-1.08,.63,0,1.1,.18,1.4,.53,.3,.35,.45,.91,.45,1.69v3.94h-1.31v-3.58c0-.29-.02-.53-.06-.72-.04-.19-.09-.34-.17-.45-.07-.11-.17-.19-.28-.23-.11-.04-.25-.06-.39-.06-.23,0-.43,.04-.61,.13-.18,.08-.32,.19-.44,.33-.12,.14-.21,.29-.27,.46-.06,.17-.09,.35-.09,.53v3.59h-1.31v-3.71c0-.51-.08-.86-.24-1.06-.16-.19-.37-.29-.65-.29-.11,0-.25,.03-.41,.07-.16,.05-.32,.13-.47,.25-.15,.12-.28,.27-.38,.46-.11,.19-.16,.42-.16,.7v3.57h-1.3v-5.97h1.26Z"/><path class="cls-5" d="M66.18,118.47v3.75c0,.5,.08,.84,.25,1.02,.16,.18,.41,.28,.75,.28,.18,0,.37-.03,.56-.1,.19-.07,.35-.17,.5-.3,.15-.13,.26-.29,.36-.47,.09-.18,.14-.39,.14-.62v-3.56h1.31v5.97h-1.27v-.87c-.28,.37-.57,.63-.89,.8-.32,.17-.67,.25-1.03,.25-.7,0-1.2-.18-1.5-.54-.3-.36-.45-.91-.45-1.65v-3.96h1.3Z"/><path class="cls-5" d="M72.78,118.47v.87c.27-.37,.57-.63,.9-.8,.33-.17,.69-.25,1.07-.25,1.33,0,2,.73,2,2.2v3.95h-1.31v-3.74c0-.48-.09-.82-.26-1.02-.18-.2-.44-.29-.78-.29-.23,0-.44,.04-.64,.12-.2,.08-.36,.19-.5,.33-.14,.14-.25,.3-.33,.48-.08,.18-.12,.37-.12,.57v3.56h-1.3v-5.97h1.26Z"/><path class="cls-5" d="M83.49,122.67c-.11,.62-.37,1.1-.79,1.44-.42,.34-1.03,.51-1.81,.51-.95,0-1.67-.27-2.16-.82-.49-.55-.74-1.32-.74-2.31,0-.51,.07-.97,.21-1.37,.14-.4,.34-.73,.6-1,.26-.27,.56-.48,.92-.62,.36-.14,.75-.21,1.18-.21,.46,0,.86,.07,1.19,.21,.34,.14,.62,.34,.84,.6,.22,.26,.39,.56,.49,.92,.11,.36,.16,.75,.16,1.19v.57h-4.28c.02,.54,.15,.98,.41,1.32,.26,.34,.65,.5,1.18,.5,.41,0,.72-.08,.93-.24,.21-.16,.34-.39,.41-.69h1.26Zm-1.19-1.8c0-.49-.12-.88-.34-1.16-.23-.28-.6-.42-1.1-.42s-.85,.14-1.1,.43c-.25,.29-.4,.67-.44,1.15h2.98Z"/><path class="cls-5" d="M91.62,123.61c-.25,.34-.52,.59-.83,.76-.31,.17-.67,.25-1.08,.25s-.8-.08-1.11-.23c-.31-.15-.57-.37-.78-.65-.21-.28-.36-.61-.46-1-.1-.39-.16-.81-.16-1.28,0-.44,.05-.84,.16-1.22,.11-.38,.26-.71,.47-.99,.21-.28,.46-.5,.76-.67,.3-.17,.65-.26,1.05-.28,.08,0,.15,0,.23,0,.08,0,.16,0,.24,.02,.27,.03,.53,.11,.77,.22,.25,.12,.49,.32,.72,.59v-2.89h1.3v8.19h-1.27v-.83Zm-.01-2.28c0-.37-.04-.69-.12-.95-.08-.26-.19-.46-.33-.61-.14-.15-.31-.26-.49-.32-.19-.06-.38-.1-.59-.1-.48,0-.85,.17-1.12,.52-.26,.34-.4,.87-.4,1.57,0,.38,.04,.71,.11,.98,.07,.27,.18,.49,.31,.65,.13,.17,.29,.29,.46,.37,.18,.08,.37,.12,.57,.12,.47,0,.86-.15,1.15-.47,.29-.31,.44-.79,.44-1.45v-.31Z"/><path class="cls-5" d="M95.73,116.24v1.3h-1.35v-1.3h1.35Zm-.02,2.23v5.97h-1.31v-5.97h1.31Z"/><path class="cls-5" d="M98.1,122.61c.02,.2,.08,.36,.16,.49,.08,.13,.19,.23,.32,.3,.13,.08,.27,.13,.44,.16,.17,.03,.35,.04,.54,.04,.44,0,.75-.06,.94-.19,.19-.13,.29-.32,.29-.57,0-.2-.06-.37-.18-.5-.12-.14-.36-.24-.73-.3-.47-.08-.89-.16-1.25-.24-.36-.08-.66-.18-.91-.32s-.43-.31-.55-.52c-.12-.21-.18-.49-.18-.85,0-.28,.06-.53,.18-.75,.12-.23,.29-.42,.51-.57,.22-.16,.48-.28,.78-.36,.3-.08,.63-.13,.99-.13,.46,0,.84,.05,1.15,.14,.31,.09,.55,.22,.75,.38,.19,.16,.34,.34,.44,.55s.18,.42,.23,.65l-1.17,.16c-.09-.3-.23-.52-.42-.67-.19-.14-.5-.22-.94-.22-.25,0-.46,.02-.62,.07-.16,.05-.29,.1-.38,.17-.1,.07-.16,.15-.19,.23-.03,.08-.05,.17-.05,.25,0,.13,.01,.24,.05,.32,.03,.08,.09,.15,.17,.21,.08,.05,.19,.1,.33,.14,.14,.04,.31,.08,.52,.11l.75,.13c.4,.07,.73,.16,.99,.26,.26,.11,.47,.24,.63,.4,.16,.16,.27,.34,.33,.55,.06,.21,.09,.44,.09,.69,0,.54-.21,.98-.62,1.31s-1.04,.5-1.88,.5c-.34,0-.68-.03-.99-.1-.32-.06-.6-.17-.85-.33s-.46-.36-.61-.61c-.16-.26-.25-.58-.27-.97h1.25Z"/><path class="cls-5" d="M108.48,122.67c-.11,.62-.37,1.1-.79,1.44-.42,.34-1.03,.51-1.81,.51-.95,0-1.67-.27-2.16-.82-.49-.55-.74-1.32-.74-2.31,0-.51,.07-.97,.21-1.37,.14-.4,.34-.73,.6-1,.26-.27,.56-.48,.92-.62,.36-.14,.75-.21,1.18-.21,.46,0,.86,.07,1.19,.21,.34,.14,.62,.34,.84,.6,.22,.26,.39,.56,.49,.92,.11,.36,.16,.75,.16,1.19v.57h-4.28c.02,.54,.15,.98,.41,1.32,.26,.34,.65,.5,1.18,.5,.41,0,.72-.08,.93-.24s.34-.39,.41-.69h1.26Zm-1.19-1.8c0-.49-.12-.88-.34-1.16-.23-.28-.6-.42-1.1-.42s-.85,.14-1.1,.43-.4,.67-.44,1.15h2.98Z"/><path class="cls-5" d="M113.44,123.65c-.22,.27-.49,.49-.81,.67-.32,.18-.71,.26-1.17,.26-.28,0-.55-.04-.79-.11-.24-.07-.46-.18-.64-.33s-.32-.33-.42-.56c-.1-.23-.16-.49-.16-.8,0-.41,.09-.75,.28-1,.18-.26,.42-.46,.72-.6,.29-.15,.63-.25,.99-.3,.37-.06,.73-.09,1.1-.11l.88-.05v-.25c0-.45-.11-.76-.33-.94-.22-.17-.5-.26-.85-.26-.41,0-.71,.07-.9,.21-.19,.14-.32,.34-.38,.6l-1.19-.13c.11-.58,.37-1.01,.79-1.27,.42-.27,1-.4,1.73-.4,.47,0,.87,.06,1.18,.18,.31,.12,.56,.29,.74,.5,.18,.21,.31,.47,.38,.76,.07,.29,.11,.62,.11,.97v3.73h-1.25v-.78Zm-.86-2.01c-.39,.02-.71,.06-.95,.13-.24,.06-.43,.14-.56,.24-.13,.1-.22,.21-.26,.33-.04,.13-.06,.26-.06,.41,0,.26,.08,.46,.25,.61,.16,.15,.41,.22,.73,.22,.57,0,1-.15,1.27-.44,.28-.29,.41-.68,.41-1.18v-.34l-.84,.03Z"/><path class="cls-5" d="M117.02,122.61c.02,.2,.08,.36,.16,.49,.08,.13,.19,.23,.32,.3,.13,.08,.27,.13,.44,.16,.17,.03,.35,.04,.54,.04,.44,0,.75-.06,.94-.19,.19-.13,.29-.32,.29-.57,0-.2-.06-.37-.18-.5-.12-.14-.36-.24-.73-.3-.47-.08-.89-.16-1.25-.24-.36-.08-.66-.18-.91-.32s-.43-.31-.55-.52c-.12-.21-.18-.49-.18-.85,0-.28,.06-.53,.18-.75,.12-.23,.29-.42,.51-.57,.22-.16,.48-.28,.78-.36,.3-.08,.63-.13,.99-.13,.46,0,.84,.05,1.15,.14,.31,.09,.55,.22,.75,.38,.19,.16,.34,.34,.44,.55,.1,.21,.18,.42,.23,.65l-1.17,.16c-.09-.3-.23-.52-.42-.67-.19-.14-.5-.22-.94-.22-.25,0-.46,.02-.62,.07-.16,.05-.29,.1-.38,.17-.1,.07-.16,.15-.19,.23-.03,.08-.05,.17-.05,.25,0,.13,.01,.24,.05,.32,.03,.08,.09,.15,.17,.21,.08,.05,.19,.1,.33,.14,.14,.04,.31,.08,.52,.11l.75,.13c.4,.07,.73,.16,.99,.26,.26,.11,.47,.24,.63,.4,.16,.16,.27,.34,.33,.55,.06,.21,.09,.44,.09,.69,0,.54-.21,.98-.62,1.31-.41,.33-1.04,.5-1.88,.5-.34,0-.68-.03-.99-.1-.32-.06-.6-.17-.85-.33s-.46-.36-.61-.61c-.16-.26-.25-.58-.27-.97h1.25Z"/><path class="cls-5" d="M127.4,122.67c-.11,.62-.37,1.1-.79,1.44-.42,.34-1.03,.51-1.81,.51-.95,0-1.67-.27-2.16-.82-.49-.55-.74-1.32-.74-2.31,0-.51,.07-.97,.21-1.37,.14-.4,.34-.73,.6-1,.26-.27,.56-.48,.92-.62,.36-.14,.75-.21,1.18-.21,.46,0,.86,.07,1.19,.21,.34,.14,.62,.34,.84,.6,.22,.26,.39,.56,.49,.92,.11,.36,.16,.75,.16,1.19v.57h-4.28c.02,.54,.15,.98,.41,1.32,.26,.34,.65,.5,1.18,.5,.41,0,.72-.08,.93-.24s.34-.39,.41-.69h1.26Zm-1.19-1.8c0-.49-.12-.88-.34-1.16-.23-.28-.6-.42-1.1-.42s-.85,.14-1.1,.43c-.25,.29-.4,.67-.44,1.15h2.98Z"/><path class="cls-5" d="M21.88,135.13c-.22,.27-.49,.49-.81,.67-.32,.18-.71,.26-1.17,.26-.28,0-.55-.04-.79-.11-.24-.07-.46-.18-.64-.33-.18-.15-.32-.33-.42-.56-.1-.23-.16-.49-.16-.8,0-.41,.09-.75,.28-1,.18-.26,.42-.46,.72-.6,.29-.15,.63-.25,.99-.3,.37-.06,.73-.09,1.1-.11l.88-.05v-.25c0-.45-.11-.76-.33-.94-.22-.17-.5-.26-.85-.26-.41,0-.71,.07-.9,.21-.19,.14-.32,.34-.38,.6l-1.19-.13c.11-.58,.37-1.01,.79-1.27,.42-.27,1-.4,1.73-.4,.47,0,.87,.06,1.18,.18,.31,.12,.56,.29,.74,.5,.18,.21,.31,.47,.38,.76,.07,.29,.11,.62,.11,.97v3.73h-1.25v-.78Zm-.86-2.01c-.39,.02-.71,.07-.95,.13s-.43,.14-.56,.24-.22,.21-.26,.33c-.04,.13-.06,.26-.06,.41,0,.26,.08,.46,.25,.61,.16,.15,.41,.22,.73,.22,.57,0,1-.15,1.27-.44,.28-.29,.41-.68,.41-1.18v-.34l-.84,.03Z"/><path class="cls-5" d="M25.83,129.94v.88c.21-.31,.45-.55,.75-.72,.29-.17,.6-.25,.93-.25,.13,0,.24,0,.33,.01,.09,0,.17,.02,.26,.03l-.15,1.19c-.08-.02-.18-.04-.28-.05s-.2-.01-.31-.01c-.25,0-.46,.04-.64,.12-.18,.08-.34,.19-.46,.32-.13,.13-.22,.28-.29,.44-.06,.16-.1,.33-.1,.5v3.5h-1.3v-5.97h1.26Z"/><path class="cls-5" d="M34.09,134.14c-.11,.62-.37,1.1-.79,1.44-.42,.34-1.03,.51-1.81,.51-.95,0-1.67-.27-2.16-.82-.49-.55-.74-1.32-.74-2.31,0-.51,.07-.97,.21-1.37,.14-.4,.34-.73,.6-1,.26-.27,.56-.48,.92-.62,.36-.14,.75-.21,1.18-.21,.46,0,.86,.07,1.19,.21,.34,.14,.62,.34,.84,.6,.22,.26,.39,.56,.49,.92,.11,.36,.16,.75,.16,1.19v.57h-4.28c.02,.54,.15,.98,.41,1.32,.26,.34,.65,.5,1.18,.5,.41,0,.72-.08,.93-.24s.34-.39,.41-.69h1.26Zm-1.19-1.8c0-.49-.12-.88-.34-1.16-.23-.28-.6-.42-1.1-.42s-.85,.14-1.1,.43c-.25,.29-.4,.67-.44,1.15h2.98Z"/><path class="cls-5" d="M38.76,129.94l1.01,4.36,1.26-4.31h1.19l1.22,4.31,1.01-4.36h1.37l-1.74,5.97h-1.3l-1.2-4.34-1.22,4.34h-1.28l-1.73-5.97h1.42Z"/><path class="cls-5" d="M49.26,136.09c-.93,0-1.66-.28-2.17-.83-.51-.55-.77-1.33-.77-2.34,0-.47,.07-.91,.2-1.3,.13-.39,.33-.72,.58-1,.25-.28,.56-.49,.93-.64,.37-.15,.78-.23,1.25-.23s.89,.08,1.26,.24c.37,.16,.67,.37,.92,.65,.25,.28,.44,.61,.56,.99s.19,.81,.19,1.27c0,.52-.07,.98-.22,1.37-.15,.39-.35,.73-.61,1-.26,.27-.58,.48-.94,.61-.36,.14-.76,.21-1.19,.21Zm.01-1.06c.55,0,.95-.19,1.21-.57,.26-.38,.38-.9,.38-1.55s-.13-1.16-.38-1.54c-.26-.38-.66-.56-1.21-.56s-.95,.19-1.21,.57c-.26,.38-.38,.89-.38,1.53s.12,1.17,.37,1.55c.25,.38,.66,.57,1.22,.57Z"/><path class="cls-5" d="M54.78,129.94v.86c.41-.57,.9-.91,1.47-1,.15-.02,.3-.03,.46-.03,.41,.02,.73,.12,.99,.3,.25,.19,.44,.44,.55,.76,.53-.72,1.18-1.08,1.95-1.08,.63,0,1.1,.18,1.4,.53,.3,.35,.45,.91,.45,1.69v3.94h-1.31v-3.58c0-.29-.02-.53-.06-.72-.04-.19-.09-.34-.17-.45-.07-.11-.17-.19-.28-.23-.11-.04-.25-.06-.39-.06-.23,0-.43,.04-.61,.13-.18,.08-.32,.19-.44,.33-.12,.14-.21,.29-.27,.46-.06,.17-.09,.35-.09,.53v3.59h-1.31v-3.71c0-.51-.08-.86-.24-1.06-.16-.19-.37-.29-.65-.29-.11,0-.25,.03-.41,.07-.16,.05-.32,.13-.47,.25-.15,.12-.28,.27-.38,.46-.11,.19-.16,.42-.16,.7v3.57h-1.3v-5.97h1.26Z"/><path class="cls-5" d="M68.78,134.14c-.11,.62-.37,1.1-.79,1.44-.42,.34-1.03,.51-1.81,.51-.95,0-1.67-.27-2.16-.82-.49-.55-.74-1.32-.74-2.31,0-.51,.07-.97,.21-1.37,.14-.4,.34-.73,.6-1,.26-.27,.56-.48,.92-.62,.36-.14,.75-.21,1.18-.21,.46,0,.86,.07,1.19,.21,.34,.14,.62,.34,.84,.6,.22,.26,.39,.56,.49,.92,.11,.36,.16,.75,.16,1.19v.57h-4.28c.02,.54,.15,.98,.41,1.32,.26,.34,.65,.5,1.18,.5,.41,0,.72-.08,.93-.24,.21-.16,.34-.39,.41-.69h1.26Zm-1.19-1.8c0-.49-.12-.88-.34-1.16-.23-.28-.6-.42-1.1-.42s-.85,.14-1.1,.43c-.25,.29-.4,.67-.44,1.15h2.98Z"/><path class="cls-5" d="M71.39,129.94v.87c.27-.37,.57-.63,.9-.8,.33-.17,.69-.25,1.07-.25,1.33,0,2,.73,2,2.2v3.95h-1.31v-3.74c0-.48-.09-.82-.26-1.02-.18-.2-.44-.29-.78-.29-.23,0-.44,.04-.64,.12-.2,.08-.36,.19-.5,.33-.14,.14-.25,.3-.33,.48-.08,.18-.12,.37-.12,.57v3.56h-1.3v-5.97h1.26Z"/><path class="cls-5" d="M78.19,134.31v1.59h-1.39v-1.59h1.39Z"/></g><g><path class="cls-5" d="M18.22,143.16h.97v5.73h-.97v-5.73Z"/><path class="cls-5" d="M19.91,145.44v-.72h.66v-1.12h.91v1.12h1.04v.72h-1.04v2.18c0,.21,.04,.37,.13,.47,.09,.1,.22,.14,.39,.14,.09,0,.18,0,.26-.02,.08-.01,.16-.03,.25-.06l.14,.68c-.26,.09-.54,.13-.84,.13-.46,0-.78-.12-.96-.36-.18-.24-.27-.6-.27-1.07v-2.1h-.66Z"/><path class="cls-5" d="M25.97,143.16v.91h-.95v-.91h.95Zm-.02,1.56v4.18h-.92v-4.18h.92Z"/><path class="cls-5" d="M27.63,147.61c.02,.14,.05,.25,.11,.34,.06,.09,.13,.16,.22,.21,.09,.05,.19,.09,.31,.11,.12,.02,.24,.03,.38,.03,.31,0,.52-.05,.66-.14,.13-.09,.2-.22,.2-.4,0-.14-.04-.26-.12-.35-.08-.1-.25-.17-.51-.21-.33-.06-.62-.12-.88-.17-.25-.05-.46-.13-.63-.22-.17-.09-.3-.21-.39-.36-.09-.15-.13-.35-.13-.6,0-.19,.04-.37,.13-.53,.09-.16,.21-.29,.36-.4,.15-.11,.33-.19,.55-.25,.21-.06,.44-.09,.7-.09,.32,0,.59,.03,.8,.1,.21,.06,.39,.15,.52,.27,.13,.11,.24,.24,.31,.39,.07,.14,.12,.3,.16,.46l-.82,.11c-.06-.21-.16-.36-.29-.47-.13-.1-.35-.15-.65-.15-.18,0-.32,.02-.43,.05-.11,.03-.2,.07-.27,.12-.07,.05-.11,.1-.14,.16-.02,.06-.04,.12-.04,.18,0,.09,.01,.17,.03,.23,.02,.06,.06,.11,.12,.14,.06,.04,.13,.07,.23,.1,.1,.03,.22,.05,.36,.08l.52,.09c.28,.05,.51,.11,.69,.18,.18,.08,.33,.17,.44,.28,.11,.11,.19,.24,.23,.38s.06,.31,.06,.48c0,.38-.14,.69-.43,.92-.29,.23-.73,.35-1.32,.35-.24,0-.47-.02-.69-.07-.22-.05-.42-.12-.6-.23-.18-.11-.32-.25-.43-.43-.11-.18-.17-.41-.19-.68h.88Z"/><path class="cls-5" d="M36.76,147.65c-.08,.43-.26,.77-.55,1.01-.29,.24-.72,.36-1.27,.36-.66,0-1.17-.19-1.51-.57-.35-.38-.52-.92-.52-1.62,0-.36,.05-.68,.15-.96,.1-.28,.24-.51,.42-.7,.18-.19,.39-.33,.64-.43,.25-.1,.52-.15,.82-.15,.32,0,.6,.05,.84,.15,.24,.1,.43,.24,.59,.42,.16,.18,.27,.39,.35,.64,.08,.25,.11,.53,.11,.83v.4h-3c.01,.38,.11,.69,.29,.92,.18,.24,.46,.35,.83,.35,.29,0,.51-.06,.65-.17,.14-.11,.24-.27,.29-.48h.88Zm-.84-1.26c0-.34-.08-.61-.24-.81-.16-.2-.42-.3-.77-.3s-.59,.1-.77,.3c-.18,.2-.28,.47-.31,.81h2.09Z"/><path class="cls-5" d="M38.33,147.61c.02,.14,.05,.25,.11,.34,.06,.09,.13,.16,.22,.21,.09,.05,.19,.09,.31,.11,.12,.02,.24,.03,.38,.03,.31,0,.52-.05,.66-.14,.13-.09,.2-.22,.2-.4,0-.14-.04-.26-.12-.35-.08-.1-.25-.17-.51-.21-.33-.06-.62-.12-.88-.17-.25-.05-.46-.13-.63-.22-.17-.09-.3-.21-.39-.36-.09-.15-.13-.35-.13-.6,0-.19,.04-.37,.13-.53,.09-.16,.21-.29,.36-.4,.15-.11,.33-.19,.55-.25,.21-.06,.44-.09,.7-.09,.32,0,.59,.03,.8,.1,.21,.06,.39,.15,.52,.27,.13,.11,.24,.24,.31,.39,.07,.14,.12,.3,.16,.46l-.82,.11c-.06-.21-.16-.36-.29-.47-.13-.1-.35-.15-.65-.15-.18,0-.32,.02-.43,.05-.11,.03-.2,.07-.27,.12-.07,.05-.11,.1-.14,.16-.02,.06-.04,.12-.04,.18,0,.09,.01,.17,.03,.23,.02,.06,.06,.11,.12,.14,.06,.04,.13,.07,.23,.1,.1,.03,.22,.05,.36,.08l.52,.09c.28,.05,.51,.11,.69,.18,.18,.08,.33,.17,.44,.28,.11,.11,.19,.24,.23,.38,.04,.14,.06,.31,.06,.48,0,.38-.14,.69-.43,.92-.29,.23-.73,.35-1.32,.35-.24,0-.47-.02-.69-.07-.22-.05-.42-.12-.6-.23-.18-.11-.32-.25-.43-.43-.11-.18-.17-.41-.19-.68h.88Z"/><path class="cls-5" d="M41.55,145.44v-.72h.66v-1.12h.91v1.12h1.04v.72h-1.04v2.18c0,.21,.04,.37,.13,.47,.09,.1,.22,.14,.39,.14,.09,0,.18,0,.26-.02,.08-.01,.16-.03,.25-.06l.14,.68c-.26,.09-.54,.13-.84,.13-.46,0-.78-.12-.96-.36-.18-.24-.27-.6-.27-1.07v-2.1h-.66Z"/><path class="cls-5" d="M45.82,143.16v.91h-.95v-.91h.95Zm-.02,1.56v4.18h-.92v-4.18h.92Z"/><path class="cls-5" d="M47.74,144.71v.6c.29-.4,.63-.63,1.03-.7,.1-.02,.21-.02,.32-.02,.28,.01,.51,.08,.69,.21,.18,.13,.31,.31,.39,.53,.37-.5,.82-.75,1.37-.75,.44,0,.77,.12,.98,.37,.21,.25,.31,.64,.31,1.18v2.75h-.92v-2.51c0-.2-.01-.37-.04-.51-.03-.13-.07-.24-.12-.32-.05-.08-.12-.13-.2-.16-.08-.03-.17-.04-.27-.04-.16,0-.3,.03-.43,.09-.12,.06-.23,.14-.31,.23-.08,.1-.15,.21-.19,.33-.04,.12-.06,.25-.06,.37v2.51h-.92v-2.59c0-.36-.05-.61-.16-.74s-.26-.2-.45-.2c-.08,0-.18,.02-.29,.05-.11,.03-.22,.09-.33,.17-.1,.08-.19,.19-.27,.32-.08,.13-.11,.3-.11,.49v2.5h-.91v-4.18h.88Z"/><path class="cls-5" d="M56.36,148.35c-.16,.19-.35,.34-.57,.47-.22,.12-.5,.18-.82,.18-.2,0-.38-.03-.55-.08-.17-.05-.32-.13-.45-.23-.13-.1-.22-.23-.3-.39-.07-.16-.11-.34-.11-.56,0-.29,.06-.52,.19-.7,.13-.18,.3-.32,.5-.42,.21-.1,.44-.17,.69-.21,.26-.04,.51-.07,.77-.08l.62-.03v-.18c0-.32-.08-.53-.23-.65-.15-.12-.35-.18-.6-.18-.28,0-.49,.05-.63,.14-.14,.1-.23,.24-.27,.42l-.84-.09c.07-.41,.26-.7,.55-.89,.29-.19,.7-.28,1.21-.28,.33,0,.61,.04,.82,.13,.22,.09,.39,.2,.52,.35,.13,.15,.22,.33,.27,.53s.08,.43,.08,.68v2.61h-.88v-.55Zm-.6-1.41c-.27,.02-.49,.05-.66,.09-.17,.04-.3,.1-.39,.16-.09,.07-.15,.14-.18,.23-.03,.09-.04,.18-.04,.28,0,.18,.06,.32,.17,.43,.12,.1,.28,.15,.51,.15,.4,0,.7-.1,.89-.31,.19-.2,.29-.48,.29-.83v-.24l-.59,.02Z"/><path class="cls-5" d="M57.83,145.44v-.72h.66v-1.12h.91v1.12h1.04v.72h-1.04v2.18c0,.21,.04,.37,.13,.47,.09,.1,.22,.14,.39,.14,.09,0,.18,0,.26-.02,.08-.01,.16-.03,.25-.06l.14,.68c-.26,.09-.54,.13-.84,.13-.46,0-.78-.12-.96-.36-.18-.24-.27-.6-.27-1.07v-2.1h-.66Z"/><path class="cls-5" d="M64.78,147.65c-.08,.43-.26,.77-.55,1.01-.29,.24-.72,.36-1.27,.36-.66,0-1.17-.19-1.51-.57-.35-.38-.52-.92-.52-1.62,0-.36,.05-.68,.15-.96,.1-.28,.24-.51,.42-.7,.18-.19,.39-.33,.64-.43,.25-.1,.52-.15,.82-.15,.32,0,.6,.05,.84,.15,.24,.1,.43,.24,.59,.42,.16,.18,.27,.39,.35,.64,.08,.25,.11,.53,.11,.83v.4h-3c.01,.38,.11,.69,.29,.92,.18,.24,.46,.35,.83,.35,.29,0,.51-.06,.65-.17,.14-.11,.24-.27,.29-.48h.88Zm-.84-1.26c0-.34-.08-.61-.24-.81-.16-.2-.42-.3-.77-.3s-.59,.1-.77,.3c-.18,.2-.28,.47-.31,.81h2.09Z"/><path class="cls-5" d="M68.69,148.31c-.17,.24-.37,.41-.58,.53-.22,.12-.47,.18-.76,.18s-.56-.05-.78-.16-.4-.26-.55-.45-.25-.43-.33-.7c-.07-.27-.11-.57-.11-.9,0-.31,.04-.59,.11-.86,.07-.26,.18-.5,.33-.69,.14-.2,.32-.35,.53-.47,.21-.12,.46-.18,.74-.19,.05,0,.11,0,.16,0,.05,0,.11,0,.17,.01,.19,.02,.37,.07,.54,.16,.17,.08,.34,.22,.5,.41v-2.02h.91v5.73h-.89v-.58Zm0-1.6c0-.26-.03-.48-.08-.66-.06-.18-.13-.32-.23-.43-.1-.1-.21-.18-.35-.22-.13-.05-.27-.07-.41-.07-.34,0-.6,.12-.78,.36-.18,.24-.28,.61-.28,1.1,0,.27,.03,.5,.08,.68,.05,.19,.12,.34,.22,.46,.09,.12,.2,.2,.32,.26,.12,.05,.26,.08,.4,.08,.33,0,.6-.11,.81-.33,.21-.22,.31-.56,.31-1.02v-.22Z"/><path class="cls-5" d="M72,145.44v-.72h.66v-1.12h.91v1.12h1.04v.72h-1.04v2.18c0,.21,.04,.37,.13,.47,.09,.1,.22,.14,.39,.14,.09,0,.18,0,.26-.02s.16-.03,.25-.06l.14,.68c-.26,.09-.54,.13-.84,.13-.46,0-.78-.12-.96-.36-.18-.24-.27-.6-.27-1.07v-2.1h-.66Z"/><path class="cls-5" d="M76.24,143.16v2.14c.18-.24,.38-.42,.61-.53,.23-.12,.48-.17,.74-.17,.93,0,1.4,.51,1.4,1.54v2.76h-.92v-2.62c0-.34-.06-.57-.18-.71-.12-.14-.31-.21-.55-.21-.17,0-.32,.03-.45,.09-.14,.06-.25,.14-.35,.23-.1,.1-.17,.21-.22,.33-.05,.13-.08,.26-.08,.39v2.49h-.91v-5.73h.91Z"/><path class="cls-5" d="M82.53,148.35c-.16,.19-.35,.34-.57,.47-.22,.12-.5,.18-.82,.18-.2,0-.38-.03-.55-.08-.17-.05-.32-.13-.45-.23-.13-.1-.22-.23-.3-.39-.07-.16-.11-.34-.11-.56,0-.29,.06-.52,.19-.7,.13-.18,.3-.32,.5-.42,.21-.1,.44-.17,.69-.21,.26-.04,.51-.07,.77-.08l.62-.03v-.18c0-.32-.08-.53-.23-.65-.15-.12-.35-.18-.6-.18-.28,0-.49,.05-.63,.14-.14,.1-.23,.24-.27,.42l-.84-.09c.07-.41,.26-.7,.55-.89,.29-.19,.7-.28,1.21-.28,.33,0,.61,.04,.82,.13,.22,.09,.39,.2,.52,.35,.13,.15,.22,.33,.27,.53s.08,.43,.08,.68v2.61h-.88v-.55Zm-.6-1.41c-.27,.02-.49,.05-.66,.09-.17,.04-.3,.1-.39,.16-.09,.07-.15,.14-.18,.23-.03,.09-.04,.18-.04,.28,0,.18,.06,.32,.17,.43,.12,.1,.28,.15,.51,.15,.4,0,.7-.1,.89-.31,.19-.2,.29-.48,.29-.83v-.24l-.59,.02Z"/><path class="cls-5" d="M83.99,145.44v-.72h.66v-1.12h.91v1.12h1.04v.72h-1.04v2.18c0,.21,.04,.37,.13,.47,.09,.1,.22,.14,.39,.14,.09,0,.18,0,.26-.02,.08-.01,.16-.03,.25-.06l.14,.68c-.26,.09-.54,.13-.84,.13-.46,0-.78-.12-.96-.36-.18-.24-.27-.6-.27-1.07v-2.1h-.66Z"/><path class="cls-5" d="M89.97,147.37c.02,.14,.05,.27,.1,.38,.05,.11,.11,.2,.18,.27,.08,.07,.18,.13,.3,.16,.12,.04,.27,.05,.44,.05,.31,0,.54-.09,.72-.27,.17-.18,.26-.47,.26-.87,0-.35-.08-.61-.25-.8-.16-.18-.41-.27-.75-.27-.22,0-.42,.04-.58,.11-.16,.07-.31,.18-.43,.32h-.78l.27-3.12h3.11v.8h-2.35l-.13,1.45c.15-.1,.32-.18,.5-.23,.18-.05,.38-.08,.57-.08,.32,0,.58,.05,.8,.16s.4,.24,.53,.41c.14,.17,.24,.36,.3,.58,.06,.22,.09,.44,.09,.65,0,.34-.05,.63-.14,.87-.09,.24-.22,.45-.39,.61-.17,.16-.36,.28-.59,.36-.23,.08-.47,.12-.73,.12-.61,0-1.08-.14-1.41-.41-.33-.27-.51-.69-.55-1.26h.91Z"/><path class="cls-5" d="M95.7,149.04c-.32,0-.61-.06-.86-.17-.25-.11-.47-.29-.65-.53-.18-.24-.31-.54-.41-.91-.09-.37-.14-.81-.14-1.32,0-.98,.18-1.71,.54-2.2,.36-.48,.88-.73,1.55-.73s1.15,.24,1.51,.71c.36,.47,.54,1.21,.54,2.21,0,.51-.05,.95-.14,1.31-.09,.37-.23,.67-.41,.91-.18,.24-.4,.42-.66,.53-.26,.12-.55,.17-.88,.17Zm0-.8c.21,0,.38-.05,.53-.15,.14-.1,.26-.24,.35-.42,.09-.18,.15-.4,.19-.67,.04-.26,.06-.56,.06-.88s-.02-.61-.06-.88c-.04-.26-.1-.49-.19-.67-.09-.18-.2-.33-.35-.43-.14-.1-.32-.15-.53-.15s-.38,.05-.53,.15c-.14,.1-.26,.25-.34,.43-.09,.18-.15,.41-.18,.67-.04,.26-.06,.55-.06,.87,0,.69,.08,1.21,.25,1.57,.17,.36,.45,.55,.86,.55Z"/><path class="cls-5" d="M101.29,144.71v.6c.29-.4,.63-.63,1.03-.7,.1-.02,.21-.02,.32-.02,.28,.01,.51,.08,.69,.21,.18,.13,.31,.31,.39,.53,.37-.5,.82-.75,1.37-.75,.44,0,.77,.12,.98,.37,.21,.25,.31,.64,.31,1.18v2.75h-.92v-2.51c0-.2-.01-.37-.04-.51-.03-.13-.07-.24-.12-.32-.05-.08-.12-.13-.2-.16-.08-.03-.17-.04-.27-.04-.16,0-.3,.03-.43,.09-.12,.06-.23,.14-.31,.23-.08,.1-.15,.21-.19,.33-.04,.12-.06,.25-.06,.37v2.51h-.92v-2.59c0-.36-.05-.61-.16-.74s-.26-.2-.45-.2c-.08,0-.18,.02-.29,.05-.11,.03-.22,.09-.33,.17-.1,.08-.19,.19-.27,.32-.08,.13-.11,.3-.11,.49v2.5h-.91v-4.18h.88Z"/><path class="cls-5" d="M108.32,143.16v.91h-.95v-.91h.95Zm-.02,1.56v4.18h-.92v-4.18h.92Z"/><path class="cls-5" d="M110.28,143.16v5.73h-.92v-5.73h.92Z"/><path class="cls-5" d="M112.26,143.16v5.73h-.92v-5.73h.92Z"/><path class="cls-5" d="M114.25,143.16v.91h-.95v-.91h.95Zm-.02,1.56v4.18h-.92v-4.18h.92Z"/><path class="cls-5" d="M117.2,149.02c-.65,0-1.16-.19-1.52-.58-.36-.39-.54-.93-.54-1.64,0-.33,.05-.63,.14-.91,.09-.27,.23-.51,.41-.7,.18-.19,.39-.34,.65-.45,.26-.11,.55-.16,.88-.16s.63,.05,.88,.16c.26,.11,.47,.26,.65,.45,.17,.19,.31,.42,.39,.69,.09,.27,.13,.57,.13,.89,0,.36-.05,.68-.15,.96-.1,.28-.25,.51-.43,.7-.18,.19-.4,.33-.65,.43-.25,.1-.53,.14-.84,.14Zm0-.74c.39,0,.67-.13,.85-.4,.18-.26,.27-.63,.27-1.09s-.09-.81-.27-1.08c-.18-.26-.46-.39-.85-.39s-.67,.13-.85,.4c-.18,.26-.27,.62-.27,1.07s.09,.82,.26,1.08c.17,.27,.46,.4,.86,.4Z"/><path class="cls-5" d="M121.06,144.71v.61c.19-.26,.4-.44,.63-.56,.23-.12,.48-.18,.75-.18,.93,0,1.4,.51,1.4,1.54v2.76h-.92v-2.62c0-.34-.06-.57-.18-.71-.12-.14-.31-.21-.55-.21-.16,0-.31,.03-.45,.08-.14,.06-.25,.13-.35,.23-.1,.1-.17,.21-.23,.33-.06,.13-.08,.26-.08,.4v2.49h-.91v-4.18h.88Z"/><path class="cls-5" d="M18.13,152.75h.89v.58c.17-.23,.37-.41,.59-.53,.22-.12,.48-.18,.77-.18s.55,.05,.77,.16c.22,.1,.4,.25,.55,.45,.15,.19,.26,.42,.33,.69,.07,.27,.11,.57,.11,.9s-.04,.64-.13,.92c-.09,.28-.21,.51-.37,.71-.16,.2-.35,.35-.57,.45-.22,.1-.48,.16-.76,.16-.22,0-.44-.04-.66-.13-.21-.09-.42-.24-.6-.47v2.03h-.92v-5.73Zm.91,2.16c0,.27,.03,.5,.09,.68,.06,.18,.14,.32,.24,.43,.1,.11,.21,.18,.35,.22,.13,.04,.27,.06,.41,.06s.29-.03,.42-.08c.13-.05,.24-.14,.34-.26,.1-.12,.17-.27,.22-.46,.05-.19,.08-.41,.08-.68s-.03-.5-.08-.69c-.06-.18-.13-.33-.22-.45-.09-.12-.2-.2-.33-.25s-.25-.07-.39-.07c-.33,0-.6,.11-.81,.32-.21,.21-.32,.55-.32,1.01v.2Z"/><path class="cls-5" d="M26.66,155.69c-.08,.43-.26,.77-.55,1.01-.29,.24-.72,.36-1.27,.36-.66,0-1.17-.19-1.51-.57-.35-.38-.52-.92-.52-1.62,0-.36,.05-.68,.15-.96,.1-.28,.24-.51,.42-.7,.18-.19,.39-.33,.64-.43,.25-.1,.52-.15,.82-.15,.32,0,.6,.05,.84,.15,.24,.1,.43,.24,.59,.42,.16,.18,.27,.39,.35,.64,.08,.25,.11,.53,.11,.83v.4h-3c.01,.38,.11,.69,.29,.92,.18,.24,.46,.35,.83,.35,.29,0,.51-.06,.65-.17,.14-.11,.24-.27,.29-.48h.88Zm-.84-1.26c0-.34-.08-.61-.24-.81-.16-.2-.42-.3-.77-.3s-.59,.1-.77,.3c-.18,.2-.28,.47-.31,.81h2.09Z"/><path class="cls-5" d="M29.52,157.05c-.65,0-1.16-.19-1.52-.58-.36-.39-.54-.93-.54-1.64,0-.33,.05-.63,.14-.91,.09-.27,.23-.51,.41-.7,.18-.19,.39-.34,.65-.45,.26-.11,.55-.16,.88-.16s.63,.05,.88,.16c.26,.11,.47,.26,.65,.45,.17,.19,.31,.42,.39,.69,.09,.27,.13,.57,.13,.89,0,.36-.05,.68-.15,.96-.1,.28-.25,.51-.43,.7-.18,.19-.4,.33-.65,.43-.25,.1-.53,.14-.84,.14Zm0-.74c.39,0,.67-.13,.85-.4,.18-.26,.27-.63,.27-1.09s-.09-.81-.27-1.08c-.18-.26-.46-.39-.85-.39s-.67,.13-.85,.4c-.18,.26-.27,.62-.27,1.07s.09,.82,.26,1.08c.17,.27,.46,.4,.86,.4Z"/><path class="cls-5" d="M32.5,152.75h.89v.58c.17-.23,.37-.41,.59-.53,.22-.12,.48-.18,.77-.18s.55,.05,.77,.16c.22,.1,.4,.25,.55,.45,.15,.19,.26,.42,.33,.69,.07,.27,.11,.57,.11,.9s-.04,.64-.13,.92c-.09,.28-.21,.51-.37,.71-.16,.2-.35,.35-.57,.45-.22,.1-.48,.16-.76,.16-.22,0-.44-.04-.66-.13-.21-.09-.42-.24-.6-.47v2.03h-.92v-5.73Zm.91,2.16c0,.27,.03,.5,.09,.68,.06,.18,.14,.32,.24,.43,.1,.11,.21,.18,.35,.22,.13,.04,.27,.06,.41,.06s.29-.03,.42-.08c.13-.05,.24-.14,.34-.26,.1-.12,.17-.27,.22-.46,.05-.19,.08-.41,.08-.68s-.03-.5-.08-.69c-.06-.18-.13-.33-.22-.45-.09-.12-.2-.2-.33-.25s-.25-.07-.39-.07c-.33,0-.6,.11-.81,.32-.21,.21-.32,.55-.32,1.01v.2Z"/><path class="cls-5" d="M38.33,151.19v5.73h-.92v-5.73h.92Z"/><path class="cls-5" d="M43.09,155.69c-.08,.43-.26,.77-.55,1.01-.29,.24-.72,.36-1.27,.36-.66,0-1.17-.19-1.51-.57-.35-.38-.52-.92-.52-1.62,0-.36,.05-.68,.15-.96,.1-.28,.24-.51,.42-.7,.18-.19,.39-.33,.64-.43,.25-.1,.52-.15,.82-.15,.32,0,.6,.05,.84,.15,.24,.1,.43,.24,.59,.42,.16,.18,.27,.39,.35,.64,.08,.25,.11,.53,.11,.83v.4h-3c.01,.38,.11,.69,.29,.92,.18,.24,.46,.35,.83,.35,.29,0,.51-.06,.65-.17,.14-.11,.24-.27,.29-.48h.88Zm-.84-1.26c0-.34-.08-.61-.24-.81-.16-.2-.42-.3-.77-.3s-.59,.1-.77,.3c-.18,.2-.28,.47-.31,.81h2.09Z"/><path class="cls-5" d="M48.36,156.38c-.16,.19-.35,.34-.57,.47-.22,.12-.5,.18-.82,.18-.2,0-.38-.03-.55-.08-.17-.05-.32-.13-.45-.23-.13-.1-.22-.23-.3-.39-.07-.16-.11-.34-.11-.56,0-.29,.06-.52,.19-.7,.13-.18,.3-.32,.5-.42,.21-.1,.44-.17,.69-.21,.26-.04,.51-.07,.77-.08l.62-.03v-.18c0-.32-.08-.53-.23-.65-.15-.12-.35-.18-.6-.18-.28,0-.49,.05-.63,.14-.14,.1-.23,.24-.27,.42l-.84-.09c.07-.41,.26-.7,.55-.89,.29-.19,.7-.28,1.21-.28,.33,0,.61,.04,.82,.13,.22,.09,.39,.2,.52,.35,.13,.15,.22,.33,.27,.53,.05,.21,.08,.43,.08,.68v2.61h-.88v-.55Zm-.6-1.41c-.27,.02-.49,.05-.66,.09-.17,.04-.3,.1-.39,.16-.09,.07-.15,.14-.18,.23-.03,.09-.04,.18-.04,.28,0,.18,.06,.32,.17,.43,.12,.1,.28,.15,.51,.15,.4,0,.7-.1,.89-.31,.19-.2,.29-.48,.29-.83v-.24l-.59,.02Z"/><path class="cls-5" d="M51.12,152.75v.62c.14-.22,.32-.39,.52-.51,.2-.12,.42-.18,.65-.18,.09,0,.17,0,.23,0,.06,0,.12,.01,.18,.02l-.1,.84c-.06-.02-.12-.03-.19-.03-.07,0-.14,0-.22,0-.17,0-.32,.03-.45,.08-.13,.06-.24,.13-.33,.22-.09,.09-.16,.19-.2,.31-.05,.12-.07,.23-.07,.35v2.45h-.91v-4.18h.88Z"/><path class="cls-5" d="M56.9,155.69c-.08,.43-.26,.77-.55,1.01-.29,.24-.72,.36-1.27,.36-.66,0-1.17-.19-1.51-.57-.35-.38-.52-.92-.52-1.62,0-.36,.05-.68,.15-.96,.1-.28,.24-.51,.42-.7,.18-.19,.39-.33,.64-.43,.25-.1,.52-.15,.82-.15,.32,0,.6,.05,.84,.15,.24,.1,.43,.24,.59,.42,.16,.18,.27,.39,.35,.64,.08,.25,.11,.53,.11,.83v.4h-3c.01,.38,.11,.69,.29,.92,.18,.24,.46,.35,.83,.35,.29,0,.51-.06,.65-.17,.14-.11,.24-.27,.29-.48h.88Zm-.84-1.26c0-.34-.08-.61-.24-.81-.16-.2-.42-.3-.77-.3s-.59,.1-.77,.3c-.18,.2-.28,.47-.31,.81h2.09Z"/><path class="cls-5" d="M62.17,156.38c-.16,.19-.35,.34-.57,.47-.22,.12-.5,.18-.82,.18-.2,0-.38-.03-.55-.08-.17-.05-.32-.13-.45-.23-.13-.1-.22-.23-.3-.39-.07-.16-.11-.34-.11-.56,0-.29,.06-.52,.19-.7,.13-.18,.3-.32,.5-.42,.21-.1,.44-.17,.69-.21,.26-.04,.51-.07,.77-.08l.62-.03v-.18c0-.32-.08-.53-.23-.65-.15-.12-.35-.18-.6-.18-.28,0-.49,.05-.63,.14-.14,.1-.23,.24-.27,.42l-.84-.09c.07-.41,.26-.7,.55-.89,.29-.19,.7-.28,1.21-.28,.33,0,.61,.04,.82,.13,.22,.09,.39,.2,.52,.35,.13,.15,.22,.33,.27,.53,.05,.21,.08,.43,.08,.68v2.61h-.88v-.55Zm-.6-1.41c-.27,.02-.49,.05-.66,.09-.17,.04-.3,.1-.39,.16-.09,.07-.15,.14-.18,.23-.03,.09-.04,.18-.04,.28,0,.18,.06,.32,.17,.43,.12,.1,.28,.15,.51,.15,.4,0,.7-.1,.89-.31,.19-.2,.29-.48,.29-.83v-.24l-.59,.02Z"/><path class="cls-5" d="M64.31,153.47h-.65v-.72h.65v-.24c0-.44,.12-.78,.36-1.02,.24-.24,.58-.36,1-.36,.28,0,.55,.04,.79,.11l-.14,.68c-.16-.05-.32-.07-.48-.07-.2,0-.35,.05-.46,.16-.11,.11-.16,.26-.16,.47v.27h1.01v.72h-1.01v3.45h-.92v-3.45Zm2.86,0h-.65v-.72h.65v-.24c0-.44,.12-.78,.36-1.02,.24-.24,.58-.36,1-.36,.28,0,.55,.04,.79,.11l-.14,.68c-.16-.05-.32-.07-.48-.07-.2,0-.35,.05-.46,.16-.11,.11-.16,.26-.16,.47v.27h1.01v.72h-1.01v3.45h-.92v-3.45Zm3.53-2.28v5.73h-.92v-5.73h.92Z"/><path class="cls-5" d="M72.69,151.19v.91h-.95v-.91h.95Zm-.02,1.56v4.18h-.92v-4.18h.92Z"/><path class="cls-5" d="M77.4,155.46c-.05,.5-.23,.89-.53,1.17-.3,.28-.74,.42-1.3,.42-.34,0-.63-.05-.88-.16-.25-.1-.46-.25-.62-.45-.17-.19-.29-.42-.37-.69-.08-.27-.12-.57-.12-.9s.05-.64,.14-.91c.09-.28,.22-.51,.4-.71,.17-.2,.39-.35,.64-.45s.54-.16,.86-.16c.29,0,.54,.04,.75,.12,.2,.08,.37,.18,.51,.31,.13,.13,.24,.28,.31,.45,.08,.17,.13,.35,.16,.54l-.91,.14c-.04-.24-.12-.43-.25-.59-.12-.16-.32-.23-.61-.23-.2,0-.37,.04-.51,.13-.13,.09-.24,.2-.32,.33-.08,.14-.14,.29-.17,.47s-.05,.36-.05,.54c0,.21,.02,.4,.06,.59,.04,.18,.1,.34,.18,.47,.08,.13,.19,.24,.32,.31,.13,.08,.3,.12,.49,.12,.28,0,.49-.07,.63-.22,.14-.15,.24-.36,.27-.63h.92Z"/><path class="cls-5" d="M77.84,153.47v-.72h.66v-1.12h.91v1.12h1.04v.72h-1.04v2.18c0,.21,.04,.37,.13,.47,.09,.1,.22,.14,.39,.14,.09,0,.18,0,.26-.02,.08-.01,.16-.03,.25-.06l.14,.68c-.26,.09-.54,.13-.84,.13-.46,0-.78-.12-.96-.36-.18-.24-.27-.6-.27-1.07v-2.1h-.66Z"/><path class="cls-5" d="M84.8,155.69c-.08,.43-.26,.77-.55,1.01-.29,.24-.72,.36-1.27,.36-.66,0-1.17-.19-1.51-.57-.35-.38-.52-.92-.52-1.62,0-.36,.05-.68,.15-.96,.1-.28,.24-.51,.42-.7,.18-.19,.39-.33,.64-.43,.25-.1,.52-.15,.82-.15,.32,0,.6,.05,.84,.15,.24,.1,.43,.24,.59,.42,.16,.18,.27,.39,.35,.64,.08,.25,.11,.53,.11,.83v.4h-3c.01,.38,.11,.69,.29,.92,.18,.24,.46,.35,.83,.35,.29,0,.51-.06,.65-.17s.24-.27,.29-.48h.88Zm-.84-1.26c0-.34-.08-.61-.24-.81-.16-.2-.42-.3-.77-.3s-.59,.1-.77,.3c-.18,.2-.28,.47-.31,.81h2.09Z"/><path class="cls-5" d="M88.7,156.34c-.17,.24-.37,.41-.58,.53-.22,.12-.47,.18-.76,.18s-.56-.05-.78-.16-.4-.26-.55-.45-.25-.43-.33-.7c-.07-.27-.11-.57-.11-.9,0-.31,.04-.59,.11-.86,.07-.26,.18-.5,.33-.69s.32-.35,.53-.47c.21-.12,.46-.18,.74-.19,.05,0,.11,0,.16,0,.05,0,.11,0,.17,.01,.19,.02,.37,.07,.54,.16,.17,.08,.34,.22,.5,.41v-2.02h.91v5.73h-.89v-.58Zm0-1.6c0-.26-.03-.48-.08-.66-.06-.18-.13-.32-.23-.43-.1-.1-.21-.18-.35-.22-.13-.05-.27-.07-.41-.07-.34,0-.6,.12-.78,.36-.18,.24-.28,.61-.28,1.1,0,.27,.03,.5,.08,.68,.05,.19,.12,.34,.22,.46,.09,.12,.2,.2,.32,.26,.12,.05,.26,.08,.4,.08,.33,0,.6-.11,.81-.33,.21-.22,.31-.56,.31-1.02v-.22Z"/><path class="cls-5" d="M91.53,155.81v1.12h-.97v-1.12h.97Z"/></g><g class="cls-6"><path class="cls-3" d="M125.44,165.51l.62,2.66,.77-2.63h.73l.74,2.63,.62-2.66h.83l-1.06,3.64h-.79l-.74-2.65-.74,2.65h-.78l-1.06-3.64h.87Z"/><path class="cls-3" d="M131.04,164.15v1.86c.15-.21,.33-.37,.54-.47,.2-.1,.42-.15,.65-.15,.81,0,1.22,.45,1.22,1.34v2.41h-.8v-2.28c0-.29-.05-.5-.16-.62s-.27-.18-.48-.18c-.14,0-.28,.03-.4,.08s-.22,.12-.3,.2-.15,.18-.2,.29c-.05,.11-.07,.22-.07,.34v2.17h-.79v-5h.79Z"/><path class="cls-3" d="M136.53,168.67c-.14,.16-.3,.3-.5,.41-.2,.11-.43,.16-.71,.16-.17,0-.33-.02-.48-.07s-.28-.11-.39-.2-.2-.2-.26-.34c-.06-.14-.09-.3-.09-.49,0-.25,.06-.46,.17-.61s.26-.28,.44-.37c.18-.09,.38-.15,.61-.18,.22-.04,.45-.06,.67-.07l.54-.03v-.15c0-.28-.07-.47-.2-.57-.13-.11-.31-.16-.52-.16-.25,0-.43,.04-.55,.13s-.2,.21-.23,.36l-.73-.08c.07-.35,.23-.61,.48-.78s.61-.25,1.06-.25c.29,0,.53,.04,.72,.11,.19,.07,.34,.18,.45,.31,.11,.13,.19,.29,.23,.47,.04,.18,.07,.38,.07,.59v2.28h-.76v-.48Zm-.53-1.23c-.24,.01-.43,.04-.58,.08-.15,.04-.26,.08-.34,.14s-.13,.13-.16,.2c-.03,.08-.04,.16-.04,.25,0,.16,.05,.28,.15,.37,.1,.09,.25,.13,.45,.13,.35,0,.61-.09,.78-.27s.25-.42,.25-.72v-.21l-.51,.02Z"/><path class="cls-3" d="M138.93,165.51v.52c.25-.35,.55-.55,.9-.61,.09-.01,.18-.02,.28-.02,.25,0,.45,.07,.6,.19s.27,.27,.34,.47c.32-.44,.72-.66,1.19-.66,.39,0,.67,.11,.85,.32s.27,.56,.27,1.03v2.4h-.8v-2.18c0-.18-.01-.32-.03-.44-.02-.12-.06-.21-.1-.28-.04-.07-.1-.11-.17-.14-.07-.03-.15-.04-.24-.04-.14,0-.26,.03-.37,.08s-.2,.12-.27,.2-.13,.18-.16,.28c-.04,.11-.06,.21-.06,.33v2.19h-.8v-2.26c0-.31-.05-.53-.14-.64-.1-.12-.23-.17-.4-.17-.07,0-.15,.02-.25,.05-.1,.03-.19,.08-.28,.15-.09,.07-.17,.16-.23,.28-.07,.12-.1,.26-.1,.43v2.18h-.79v-3.64h.77Z"/><path class="cls-3" d="M145.01,165.51v.53c.16-.22,.35-.39,.55-.49s.42-.15,.65-.15c.81,0,1.22,.45,1.22,1.34v2.41h-.8v-2.28c0-.29-.05-.5-.16-.62s-.27-.18-.48-.18c-.14,0-.27,.02-.39,.07-.12,.05-.22,.12-.3,.2s-.15,.18-.2,.29-.07,.23-.07,.35v2.17h-.79v-3.64h.77Z"/><path class="cls-3" d="M149.97,169.26c-.57,0-1.01-.17-1.32-.5s-.47-.81-.47-1.43c0-.29,.04-.55,.12-.79,.08-.24,.2-.44,.35-.61,.15-.17,.34-.3,.57-.39,.22-.09,.48-.14,.76-.14s.55,.05,.77,.14,.41,.23,.56,.4,.27,.37,.34,.61,.12,.49,.12,.77c0,.32-.04,.6-.13,.84-.09,.24-.21,.44-.37,.61-.16,.17-.35,.29-.57,.38-.22,.08-.46,.13-.73,.13Zm0-.64c.34,0,.58-.12,.74-.35,.16-.23,.23-.55,.23-.95s-.08-.71-.23-.94c-.16-.23-.4-.34-.74-.34s-.58,.12-.74,.35c-.16,.23-.23,.54-.23,.93s.08,.71,.23,.95,.4,.35,.75,.35Z"/><path class="cls-3" d="M152.96,165.51l.62,2.66,.77-2.63h.73l.74,2.63,.62-2.66h.83l-1.06,3.64h-.79l-.74-2.65-.74,2.65h-.78l-1.06-3.64h.87Z"/><path class="cls-3" d="M158.2,168.17v.97h-.85v-.97h.85Z"/><path class="cls-3" d="M160.53,169.26c-.57,0-1.01-.17-1.32-.5s-.47-.81-.47-1.43c0-.29,.04-.55,.12-.79,.08-.24,.2-.44,.35-.61s.34-.3,.57-.39c.22-.09,.48-.14,.76-.14s.55,.05,.77,.14c.22,.1,.41,.23,.56,.4,.15,.17,.27,.37,.34,.61s.12,.49,.12,.77c0,.32-.04,.6-.13,.84-.09,.24-.21,.44-.38,.61-.16,.17-.35,.29-.57,.38s-.46,.13-.73,.13Zm0-.64c.34,0,.58-.12,.74-.35,.16-.23,.23-.55,.23-.95s-.08-.71-.23-.94-.4-.34-.74-.34-.58,.12-.74,.35c-.16,.23-.24,.54-.24,.93s.08,.71,.23,.95c.15,.23,.4,.35,.75,.35Z"/><path class="cls-3" d="M163.9,165.51v.54c.13-.19,.28-.34,.46-.44s.37-.15,.57-.15c.08,0,.15,0,.2,0,.05,0,.11,.01,.16,.02l-.09,.73c-.05-.01-.11-.02-.17-.03s-.12,0-.19,0c-.15,0-.28,.02-.39,.07s-.21,.11-.28,.19-.14,.17-.17,.27c-.04,.1-.06,.2-.06,.3v2.13h-.79v-3.64h.77Z"/><path class="cls-3" d="M166.52,169.43c.04,.2,.12,.33,.25,.41,.12,.08,.33,.12,.61,.12,.21,0,.39-.04,.52-.13s.23-.21,.28-.38c.06-.17,.09-.41,.09-.71v-.25c-.13,.19-.29,.33-.49,.43-.2,.1-.42,.15-.67,.15-.49,0-.87-.16-1.13-.48-.27-.32-.4-.77-.4-1.34s.14-1,.43-1.34,.68-.5,1.16-.5c.46,0,.83,.18,1.11,.55v-.44h.78v3.09c0,.7-.13,1.21-.41,1.52-.27,.31-.7,.46-1.28,.46-.53,0-.92-.09-1.19-.28s-.42-.48-.47-.88h.8Zm1.75-2.23c0-.38-.08-.66-.24-.86-.16-.19-.39-.29-.7-.29-.29,0-.52,.1-.68,.3-.16,.2-.25,.5-.25,.88s.08,.67,.23,.88c.16,.21,.37,.31,.65,.31,.31,0,.55-.1,.72-.29,.17-.19,.25-.47,.25-.82v-.11Z"/></g></g></g></svg>